<?xml version="1.0" standalone="no"?>
<!DOCTYPE svg PUBLIC "-//W3C//DTD SVG 20010904//EN"
 "http://www.w3.org/TR/2001/REC-SVG-20010904/DTD/svg10.dtd">
<svg version="1.0" xmlns="http://www.w3.org/2000/svg"
 width="1980.000000pt" height="2000.000000pt" viewBox="0 0 1980.000000 2000.000000"
 preserveAspectRatio="xMidYMid meet">

 <!-- Fondo agregado -->
<circle cx="990" cy="1000" r="1000" fill="#F3ECE2" />

<g transform="translate(0.000000,2000.000000) scale(0.100000,-0.100000)"
fill="#2B1F13" stroke="none">
<path d="M8616 12572 c-693 -1791 -1261 -3265 -1263 -3277 -3 -15 196 -257
758 -925 l761 -905 -3033 -6 c-1669 -3 -3665 -7 -4436 -8 l-1403 -1 0 -251 0
-252 1898 7 c1043 3 5191 11 9217 16 4026 6 7627 13 8003 16 l682 6 0 246 0
245 -4592 -7 -4593 -7 32 28 c17 15 426 410 908 877 698 677 876 854 872 870
-4 20 -2533 6548 -2546 6573 -3 7 -573 -1454 -1265 -3245z m1274 -1952 l0
-3150 -147 0 -148 1 -642 947 -642 948 787 2202 c433 1211 788 2202 790 2202
1 0 2 -1417 2 -3150z"/>
</g>
</svg>
